<mxfile host="app.diagrams.net" modified="2023-05-13T16:43:35.245Z" agent="Mozilla/5.0 (Windows NT 10.0; Win64; x64) AppleWebKit/537.36 (KHTML, like Gecko) Chrome/113.0.0.0 Safari/537.36" etag="1rv6zvtBSxR8LtM0kCiA" version="21.2.9" type="device">
  <diagram name="Page-1" id="Df9iRZGpuiLzR9Wa2S6h">
    <mxGraphModel dx="1195" dy="751" grid="1" gridSize="10" guides="1" tooltips="1" connect="1" arrows="1" fold="1" page="1" pageScale="1.15" pageWidth="850" pageHeight="1100" math="0" shadow="0">
      <root>
        <mxCell id="0" />
        <mxCell id="1" parent="0" />
        <mxCell id="tA2Y3AMWH3oa_1CvWp-F-129" value="" style="shape=parallelogram;perimeter=parallelogramPerimeter;whiteSpace=wrap;html=1;fixedSize=1;direction=west;size=280;fillColor=#A9C4EB;strokeColor=#090B0F;dashed=1;dashPattern=8 8;gradientColor=#FFFFFF;gradientDirection=north;" parent="1" vertex="1">
          <mxGeometry x="510" y="290" width="440" height="220" as="geometry" />
        </mxCell>
        <mxCell id="tA2Y3AMWH3oa_1CvWp-F-3" value="" style="shape=parallelogram;perimeter=parallelogramPerimeter;whiteSpace=wrap;html=1;fixedSize=1;direction=west;size=280;fillColor=#A9C4EB;strokeColor=#090B0F;dashed=1;dashPattern=8 8;gradientColor=#FFFFFF;gradientDirection=north;" parent="1" vertex="1">
          <mxGeometry x="99" y="290" width="440" height="220" as="geometry" />
        </mxCell>
        <mxCell id="tA2Y3AMWH3oa_1CvWp-F-1" value="" style="shape=parallelogram;perimeter=parallelogramPerimeter;whiteSpace=wrap;html=1;fixedSize=1;direction=south;size=20;gradientDirection=north;" parent="1" vertex="1">
          <mxGeometry x="139" y="240" width="170" height="150" as="geometry" />
        </mxCell>
        <mxCell id="tA2Y3AMWH3oa_1CvWp-F-64" value="" style="shape=parallelogram;perimeter=parallelogramPerimeter;whiteSpace=wrap;html=1;fixedSize=1;direction=south;size=20;fillColor=#A9C4EB;strokeColor=#161C26;gradientDirection=east;gradientColor=#FFFFFF;" parent="1" vertex="1">
          <mxGeometry x="139" y="307" width="170" height="83" as="geometry" />
        </mxCell>
        <mxCell id="tA2Y3AMWH3oa_1CvWp-F-6" value="" style="endArrow=classic;html=1;rounded=0;" parent="1" edge="1">
          <mxGeometry width="50" height="50" relative="1" as="geometry">
            <mxPoint x="99" y="410" as="sourcePoint" />
            <mxPoint x="159" y="410" as="targetPoint" />
          </mxGeometry>
        </mxCell>
        <mxCell id="tA2Y3AMWH3oa_1CvWp-F-7" value="" style="endArrow=classic;html=1;rounded=0;" parent="1" edge="1">
          <mxGeometry width="50" height="50" relative="1" as="geometry">
            <mxPoint x="99" y="410" as="sourcePoint" />
            <mxPoint x="99" y="470" as="targetPoint" />
          </mxGeometry>
        </mxCell>
        <mxCell id="tA2Y3AMWH3oa_1CvWp-F-8" value="" style="endArrow=none;html=1;rounded=0;endFill=0;dashed=1;" parent="1" edge="1">
          <mxGeometry width="50" height="50" relative="1" as="geometry">
            <mxPoint x="99" y="410" as="sourcePoint" />
            <mxPoint x="218" y="316" as="targetPoint" />
          </mxGeometry>
        </mxCell>
        <mxCell id="tA2Y3AMWH3oa_1CvWp-F-10" value="" style="shape=cylinder3;whiteSpace=wrap;html=1;boundedLbl=1;backgroundOutline=1;size=3.60003662109375;" parent="1" vertex="1">
          <mxGeometry x="445" y="309" width="10" height="20" as="geometry" />
        </mxCell>
        <mxCell id="tA2Y3AMWH3oa_1CvWp-F-18" value="" style="endArrow=none;html=1;rounded=0;endFill=0;dashed=1;" parent="1" edge="1">
          <mxGeometry width="50" height="50" relative="1" as="geometry">
            <mxPoint x="219" y="362" as="sourcePoint" />
            <mxPoint x="218" y="316" as="targetPoint" />
          </mxGeometry>
        </mxCell>
        <mxCell id="tA2Y3AMWH3oa_1CvWp-F-20" value="" style="endArrow=none;html=1;rounded=0;endFill=0;dashed=1;fillColor=#dae8fc;strokeColor=#0000FF;" parent="1" edge="1">
          <mxGeometry width="50" height="50" relative="1" as="geometry">
            <mxPoint x="99" y="410" as="sourcePoint" />
            <mxPoint x="219" y="362" as="targetPoint" />
          </mxGeometry>
        </mxCell>
        <mxCell id="tA2Y3AMWH3oa_1CvWp-F-15" value="" style="shape=cylinder3;whiteSpace=wrap;html=1;boundedLbl=1;backgroundOutline=1;size=3.60003662109375;" parent="1" vertex="1">
          <mxGeometry x="274" y="348" width="10" height="20" as="geometry" />
        </mxCell>
        <mxCell id="tA2Y3AMWH3oa_1CvWp-F-27" value="" style="endArrow=none;html=1;rounded=0;endFill=0;" parent="1" edge="1">
          <mxGeometry width="50" height="50" relative="1" as="geometry">
            <mxPoint x="310" y="361" as="sourcePoint" />
            <mxPoint x="450" y="329" as="targetPoint" />
          </mxGeometry>
        </mxCell>
        <mxCell id="tA2Y3AMWH3oa_1CvWp-F-28" value="" style="endArrow=none;html=1;rounded=0;endFill=0;dashed=1;fillColor=#f8cecc;strokeColor=#FF0000;" parent="1" edge="1">
          <mxGeometry width="50" height="50" relative="1" as="geometry">
            <mxPoint x="277" y="368" as="sourcePoint" />
            <mxPoint x="219" y="362" as="targetPoint" />
          </mxGeometry>
        </mxCell>
        <mxCell id="tA2Y3AMWH3oa_1CvWp-F-30" value="" style="curved=1;endArrow=none;html=1;rounded=0;endFill=0;strokeWidth=2;fillColor=#dae8fc;strokeColor=#0000FF;" parent="1" edge="1">
          <mxGeometry width="50" height="50" relative="1" as="geometry">
            <mxPoint x="207" y="367" as="sourcePoint" />
            <mxPoint x="195" y="334" as="targetPoint" />
            <Array as="points">
              <mxPoint x="209" y="341" />
            </Array>
          </mxGeometry>
        </mxCell>
        <mxCell id="tA2Y3AMWH3oa_1CvWp-F-31" value="" style="endArrow=none;html=1;rounded=0;endFill=0;dashed=1;fillColor=#dae8fc;strokeColor=#000000;" parent="1" edge="1">
          <mxGeometry width="50" height="50" relative="1" as="geometry">
            <mxPoint x="99" y="410" as="sourcePoint" />
            <mxPoint x="218" y="316" as="targetPoint" />
          </mxGeometry>
        </mxCell>
        <mxCell id="tA2Y3AMWH3oa_1CvWp-F-32" value="" style="endArrow=none;html=1;rounded=0;endFill=0;dashed=1;fillColor=#dae8fc;strokeColor=#0000FF;" parent="1" edge="1">
          <mxGeometry width="50" height="50" relative="1" as="geometry">
            <mxPoint x="219" y="362" as="sourcePoint" />
            <mxPoint x="218" y="316" as="targetPoint" />
          </mxGeometry>
        </mxCell>
        <mxCell id="tA2Y3AMWH3oa_1CvWp-F-34" value="x" style="text;html=1;align=center;verticalAlign=middle;resizable=0;points=[];autosize=1;strokeColor=none;fillColor=none;" parent="1" vertex="1">
          <mxGeometry x="130" y="403" width="30" height="30" as="geometry" />
        </mxCell>
        <mxCell id="tA2Y3AMWH3oa_1CvWp-F-35" value="y" style="text;html=1;align=center;verticalAlign=middle;resizable=0;points=[];autosize=1;strokeColor=none;fillColor=none;" parent="1" vertex="1">
          <mxGeometry x="65" y="433" width="30" height="30" as="geometry" />
        </mxCell>
        <mxCell id="tA2Y3AMWH3oa_1CvWp-F-36" value="z" style="text;html=1;align=center;verticalAlign=middle;resizable=0;points=[];autosize=1;strokeColor=none;fillColor=none;" parent="1" vertex="1">
          <mxGeometry x="97" y="365" width="30" height="30" as="geometry" />
        </mxCell>
        <mxCell id="tA2Y3AMWH3oa_1CvWp-F-9" value="" style="endArrow=classic;html=1;rounded=0;" parent="1" edge="1">
          <mxGeometry width="50" height="50" relative="1" as="geometry">
            <mxPoint x="99" y="410" as="sourcePoint" />
            <mxPoint x="142" y="376" as="targetPoint" />
          </mxGeometry>
        </mxCell>
        <mxCell id="tA2Y3AMWH3oa_1CvWp-F-38" value="&lt;font color=&quot;#ff0000&quot;&gt;Î¸&lt;/font&gt;" style="text;html=1;align=center;verticalAlign=middle;resizable=0;points=[];autosize=1;strokeColor=none;fillColor=none;fontColor=#0000FF;" parent="1" vertex="1">
          <mxGeometry x="206" y="356" width="30" height="30" as="geometry" />
        </mxCell>
        <mxCell id="tA2Y3AMWH3oa_1CvWp-F-54" value="" style="endArrow=classic;html=1;rounded=0;" parent="1" edge="1">
          <mxGeometry width="50" height="50" relative="1" as="geometry">
            <mxPoint x="99" y="510" as="sourcePoint" />
            <mxPoint x="159" y="510" as="targetPoint" />
          </mxGeometry>
        </mxCell>
        <mxCell id="tA2Y3AMWH3oa_1CvWp-F-55" value="" style="endArrow=classic;html=1;rounded=0;" parent="1" edge="1">
          <mxGeometry width="50" height="50" relative="1" as="geometry">
            <mxPoint x="99" y="510" as="sourcePoint" />
            <mxPoint x="99" y="570" as="targetPoint" />
          </mxGeometry>
        </mxCell>
        <mxCell id="tA2Y3AMWH3oa_1CvWp-F-57" value="y" style="text;html=1;align=center;verticalAlign=middle;resizable=0;points=[];autosize=1;strokeColor=none;fillColor=none;" parent="1" vertex="1">
          <mxGeometry x="122" y="504" width="30" height="30" as="geometry" />
        </mxCell>
        <mxCell id="tA2Y3AMWH3oa_1CvWp-F-58" value="z" style="text;html=1;align=center;verticalAlign=middle;resizable=0;points=[];autosize=1;strokeColor=none;fillColor=none;" parent="1" vertex="1">
          <mxGeometry x="69" y="533" width="30" height="30" as="geometry" />
        </mxCell>
        <mxCell id="tA2Y3AMWH3oa_1CvWp-F-59" value="" style="endArrow=classic;html=1;rounded=0;" parent="1" edge="1">
          <mxGeometry width="50" height="50" relative="1" as="geometry">
            <mxPoint x="99" y="510" as="sourcePoint" />
            <mxPoint x="142" y="476" as="targetPoint" />
          </mxGeometry>
        </mxCell>
        <mxCell id="tA2Y3AMWH3oa_1CvWp-F-60" value="x" style="text;html=1;align=center;verticalAlign=middle;resizable=0;points=[];autosize=1;strokeColor=none;fillColor=none;" parent="1" vertex="1">
          <mxGeometry x="104" y="458" width="30" height="30" as="geometry" />
        </mxCell>
        <mxCell id="tA2Y3AMWH3oa_1CvWp-F-37" value="&lt;font color=&quot;#0000ff&quot;&gt;Ï&lt;/font&gt;" style="text;html=1;align=center;verticalAlign=middle;resizable=0;points=[];autosize=1;strokeColor=none;fillColor=none;fontColor=#FF0000;" parent="1" vertex="1">
          <mxGeometry x="184" y="335" width="30" height="30" as="geometry" />
        </mxCell>
        <mxCell id="tA2Y3AMWH3oa_1CvWp-F-29" value="" style="curved=1;endArrow=none;html=1;rounded=0;endFill=0;strokeWidth=2;fillColor=#f8cecc;strokeColor=#FF0000;fontColor=none;noLabel=1;" parent="1" edge="1">
          <mxGeometry width="50" height="50" relative="1" as="geometry">
            <mxPoint x="218" y="380" as="sourcePoint" />
            <mxPoint x="207" y="367" as="targetPoint" />
            <Array as="points">
              <mxPoint x="218" y="370" />
            </Array>
          </mxGeometry>
        </mxCell>
        <mxCell id="tA2Y3AMWH3oa_1CvWp-F-66" value="" style="endArrow=none;html=1;rounded=0;endFill=0;dashed=1;fillColor=#f8cecc;strokeColor=#FF0000;" parent="1" edge="1">
          <mxGeometry width="50" height="50" relative="1" as="geometry">
            <mxPoint x="278" y="368" as="sourcePoint" />
            <mxPoint x="99" y="410" as="targetPoint" />
          </mxGeometry>
        </mxCell>
        <mxCell id="tA2Y3AMWH3oa_1CvWp-F-67" value="" style="endArrow=none;html=1;rounded=0;endFill=0;dashed=1;fillColor=#dae8fc;strokeColor=#161C26;exitX=0.5;exitY=1;exitDx=0;exitDy=0;exitPerimeter=0;" parent="1" source="tA2Y3AMWH3oa_1CvWp-F-15" edge="1">
          <mxGeometry width="50" height="50" relative="1" as="geometry">
            <mxPoint x="284" y="367" as="sourcePoint" />
            <mxPoint x="371" y="347" as="targetPoint" />
          </mxGeometry>
        </mxCell>
        <mxCell id="tA2Y3AMWH3oa_1CvWp-F-76" value="c" style="text;html=1;align=center;verticalAlign=middle;resizable=0;points=[];autosize=1;strokeColor=none;fillColor=none;fontSize=10;" parent="1" vertex="1">
          <mxGeometry x="135" y="408" width="30" height="30" as="geometry" />
        </mxCell>
        <mxCell id="tA2Y3AMWH3oa_1CvWp-F-77" value="c" style="text;html=1;align=center;verticalAlign=middle;resizable=0;points=[];autosize=1;strokeColor=none;fillColor=none;fontSize=10;" parent="1" vertex="1">
          <mxGeometry x="73" y="441" width="30" height="30" as="geometry" />
        </mxCell>
        <mxCell id="tA2Y3AMWH3oa_1CvWp-F-78" value="c" style="text;html=1;align=center;verticalAlign=middle;resizable=0;points=[];autosize=1;strokeColor=none;fillColor=none;fontSize=10;" parent="1" vertex="1">
          <mxGeometry x="103" y="371" width="30" height="30" as="geometry" />
        </mxCell>
        <mxCell id="tA2Y3AMWH3oa_1CvWp-F-79" value="w" style="text;html=1;align=center;verticalAlign=middle;resizable=0;points=[];autosize=1;strokeColor=none;fillColor=none;fontSize=9;" parent="1" vertex="1">
          <mxGeometry x="75" y="545" width="30" height="20" as="geometry" />
        </mxCell>
        <mxCell id="tA2Y3AMWH3oa_1CvWp-F-80" value="w" style="text;html=1;align=center;verticalAlign=middle;resizable=0;points=[];autosize=1;strokeColor=none;fillColor=none;fontSize=9;" parent="1" vertex="1">
          <mxGeometry x="128" y="515" width="30" height="20" as="geometry" />
        </mxCell>
        <mxCell id="tA2Y3AMWH3oa_1CvWp-F-81" value="w" style="text;html=1;align=center;verticalAlign=middle;resizable=0;points=[];autosize=1;strokeColor=none;fillColor=none;fontSize=9;" parent="1" vertex="1">
          <mxGeometry x="110" y="470" width="30" height="20" as="geometry" />
        </mxCell>
        <mxCell id="tA2Y3AMWH3oa_1CvWp-F-84" value="&lt;b&gt;World frame&lt;/b&gt;" style="text;html=1;align=center;verticalAlign=middle;resizable=0;points=[];autosize=1;strokeColor=none;fillColor=none;" parent="1" vertex="1">
          <mxGeometry x="179" y="515" width="90" height="30" as="geometry" />
        </mxCell>
        <mxCell id="tA2Y3AMWH3oa_1CvWp-F-85" value="&lt;b&gt;Camera &lt;br&gt;frame&lt;/b&gt;" style="text;html=1;align=center;verticalAlign=middle;resizable=0;points=[];autosize=1;strokeColor=none;fillColor=none;" parent="1" vertex="1">
          <mxGeometry x="35" y="371" width="70" height="40" as="geometry" />
        </mxCell>
        <mxCell id="tA2Y3AMWH3oa_1CvWp-F-130" value="" style="shape=parallelogram;perimeter=parallelogramPerimeter;whiteSpace=wrap;html=1;fixedSize=1;direction=south;size=20;gradientDirection=north;" parent="1" vertex="1">
          <mxGeometry x="550" y="240" width="170" height="150" as="geometry" />
        </mxCell>
        <mxCell id="tA2Y3AMWH3oa_1CvWp-F-131" value="" style="shape=parallelogram;perimeter=parallelogramPerimeter;whiteSpace=wrap;html=1;fixedSize=1;direction=south;size=20;fillColor=#A9C4EB;strokeColor=#161C26;gradientDirection=east;gradientColor=#FFFFFF;" parent="1" vertex="1">
          <mxGeometry x="550" y="307" width="170" height="83" as="geometry" />
        </mxCell>
        <mxCell id="tA2Y3AMWH3oa_1CvWp-F-132" value="" style="endArrow=classic;html=1;rounded=0;" parent="1" edge="1">
          <mxGeometry width="50" height="50" relative="1" as="geometry">
            <mxPoint x="510" y="410" as="sourcePoint" />
            <mxPoint x="570" y="410" as="targetPoint" />
          </mxGeometry>
        </mxCell>
        <mxCell id="tA2Y3AMWH3oa_1CvWp-F-133" value="" style="endArrow=classic;html=1;rounded=0;" parent="1" edge="1">
          <mxGeometry width="50" height="50" relative="1" as="geometry">
            <mxPoint x="510" y="410" as="sourcePoint" />
            <mxPoint x="510" y="470" as="targetPoint" />
          </mxGeometry>
        </mxCell>
        <mxCell id="tA2Y3AMWH3oa_1CvWp-F-134" value="" style="endArrow=none;html=1;rounded=0;endFill=0;dashed=1;" parent="1" edge="1">
          <mxGeometry width="50" height="50" relative="1" as="geometry">
            <mxPoint x="510" y="410" as="sourcePoint" />
            <mxPoint x="629" y="316" as="targetPoint" />
          </mxGeometry>
        </mxCell>
        <mxCell id="tA2Y3AMWH3oa_1CvWp-F-138" value="" style="shape=cylinder3;whiteSpace=wrap;html=1;boundedLbl=1;backgroundOutline=1;size=3.60003662109375;" parent="1" vertex="1">
          <mxGeometry x="685" y="348" width="10" height="20" as="geometry" />
        </mxCell>
        <mxCell id="tA2Y3AMWH3oa_1CvWp-F-147" value="" style="endArrow=classic;html=1;rounded=0;" parent="1" edge="1">
          <mxGeometry width="50" height="50" relative="1" as="geometry">
            <mxPoint x="510" y="410" as="sourcePoint" />
            <mxPoint x="553" y="376" as="targetPoint" />
          </mxGeometry>
        </mxCell>
        <mxCell id="tA2Y3AMWH3oa_1CvWp-F-149" value="" style="endArrow=classic;html=1;rounded=0;" parent="1" edge="1">
          <mxGeometry width="50" height="50" relative="1" as="geometry">
            <mxPoint x="510" y="510" as="sourcePoint" />
            <mxPoint x="570" y="510" as="targetPoint" />
          </mxGeometry>
        </mxCell>
        <mxCell id="tA2Y3AMWH3oa_1CvWp-F-150" value="" style="endArrow=classic;html=1;rounded=0;" parent="1" edge="1">
          <mxGeometry width="50" height="50" relative="1" as="geometry">
            <mxPoint x="510" y="510" as="sourcePoint" />
            <mxPoint x="510" y="570" as="targetPoint" />
          </mxGeometry>
        </mxCell>
        <mxCell id="tA2Y3AMWH3oa_1CvWp-F-172" value="&lt;b&gt;Image frame&lt;/b&gt;" style="text;html=1;align=center;verticalAlign=middle;resizable=0;points=[];autosize=1;strokeColor=none;fillColor=none;rotation=6.9;" parent="1" vertex="1">
          <mxGeometry x="186" y="220" width="90" height="30" as="geometry" />
        </mxCell>
        <mxCell id="tA2Y3AMWH3oa_1CvWp-F-177" value="&lt;b&gt;Image frame&lt;/b&gt;" style="text;html=1;align=center;verticalAlign=middle;resizable=0;points=[];autosize=1;strokeColor=none;fillColor=none;rotation=6.9;" parent="1" vertex="1">
          <mxGeometry x="605" y="220" width="90" height="30" as="geometry" />
        </mxCell>
        <mxCell id="tA2Y3AMWH3oa_1CvWp-F-178" value="&lt;b&gt;World frame&lt;/b&gt;" style="text;html=1;align=center;verticalAlign=middle;resizable=0;points=[];autosize=1;strokeColor=none;fillColor=none;" parent="1" vertex="1">
          <mxGeometry x="605" y="515" width="90" height="30" as="geometry" />
        </mxCell>
        <mxCell id="tA2Y3AMWH3oa_1CvWp-F-179" value="&lt;b&gt;World&#39;&lt;br&gt;frame&lt;/b&gt;" style="text;html=1;align=center;verticalAlign=middle;resizable=0;points=[];autosize=1;strokeColor=none;fillColor=none;" parent="1" vertex="1">
          <mxGeometry x="455" y="375" width="60" height="40" as="geometry" />
        </mxCell>
        <mxCell id="G8OpNZ5H0LpUO1ZOk_jS-1" value="" style="endArrow=classic;html=1;rounded=0;fillColor=#d5e8d4;strokeColor=#009900;fontColor=#009900;" edge="1" parent="1">
          <mxGeometry width="50" height="50" relative="1" as="geometry">
            <mxPoint x="99" y="410" as="sourcePoint" />
            <mxPoint x="252" y="374" as="targetPoint" />
          </mxGeometry>
        </mxCell>
        <mxCell id="G8OpNZ5H0LpUO1ZOk_jS-8" value="V" style="text;html=1;align=center;verticalAlign=middle;resizable=0;points=[];autosize=1;strokeColor=none;fillColor=none;fontStyle=1;fontColor=#009900;" vertex="1" parent="1">
          <mxGeometry x="176" y="385" width="30" height="30" as="geometry" />
        </mxCell>
        <mxCell id="G8OpNZ5H0LpUO1ZOk_jS-9" value="c" style="text;html=1;align=center;verticalAlign=middle;resizable=0;points=[];autosize=1;strokeColor=none;fillColor=none;fontStyle=1;fontColor=#009900;" vertex="1" parent="1">
          <mxGeometry x="184" y="390" width="30" height="30" as="geometry" />
        </mxCell>
        <mxCell id="tA2Y3AMWH3oa_1CvWp-F-153" value="" style="endArrow=classic;html=1;rounded=0;" parent="1" edge="1">
          <mxGeometry width="50" height="50" relative="1" as="geometry">
            <mxPoint x="510" y="510" as="sourcePoint" />
            <mxPoint x="553" y="476" as="targetPoint" />
          </mxGeometry>
        </mxCell>
        <mxCell id="G8OpNZ5H0LpUO1ZOk_jS-26" value="" style="endArrow=classic;html=1;rounded=0;fillColor=#d5e8d4;strokeColor=#000000;" edge="1" parent="1">
          <mxGeometry width="50" height="50" relative="1" as="geometry">
            <mxPoint x="511" y="510" as="sourcePoint" />
            <mxPoint x="860" y="328.5" as="targetPoint" />
          </mxGeometry>
        </mxCell>
        <mxCell id="tA2Y3AMWH3oa_1CvWp-F-135" value="" style="shape=cylinder3;whiteSpace=wrap;html=1;boundedLbl=1;backgroundOutline=1;size=3.60003662109375;" parent="1" vertex="1">
          <mxGeometry x="856" y="309" width="10" height="20" as="geometry" />
        </mxCell>
        <mxCell id="G8OpNZ5H0LpUO1ZOk_jS-28" value="" style="endArrow=classic;html=1;rounded=0;fillColor=#d5e8d4;strokeColor=#C900C9;fontColor=#009900;" edge="1" parent="1">
          <mxGeometry width="50" height="50" relative="1" as="geometry">
            <mxPoint x="510" y="410" as="sourcePoint" />
            <mxPoint x="860" y="328" as="targetPoint" />
          </mxGeometry>
        </mxCell>
        <mxCell id="G8OpNZ5H0LpUO1ZOk_jS-30" value="s" style="text;html=1;align=center;verticalAlign=middle;resizable=0;points=[];autosize=1;strokeColor=none;fillColor=none;fontColor=#C900C9;fontStyle=1" vertex="1" parent="1">
          <mxGeometry x="763" y="317" width="30" height="30" as="geometry" />
        </mxCell>
        <mxCell id="G8OpNZ5H0LpUO1ZOk_jS-31" value="v" style="text;html=1;align=center;verticalAlign=middle;resizable=0;points=[];autosize=1;strokeColor=none;fillColor=none;fontColor=#C900C9;fontStyle=1" vertex="1" parent="1">
          <mxGeometry x="769" y="317" width="30" height="30" as="geometry" />
        </mxCell>
        <mxCell id="G8OpNZ5H0LpUO1ZOk_jS-32" value="&lt;font style=&quot;font-size: 10px;&quot;&gt;w&lt;/font&gt;" style="text;html=1;align=center;verticalAlign=middle;resizable=0;points=[];autosize=1;strokeColor=none;fillColor=none;fontColor=#C900C9;fontStyle=0" vertex="1" parent="1">
          <mxGeometry x="776" y="320" width="30" height="30" as="geometry" />
        </mxCell>
        <mxCell id="G8OpNZ5H0LpUO1ZOk_jS-35" value="&lt;br&gt;x" style="text;html=1;align=center;verticalAlign=middle;resizable=0;points=[];autosize=1;strokeColor=none;fillColor=none;fontStyle=1" vertex="1" parent="1">
          <mxGeometry x="770" y="351" width="30" height="40" as="geometry" />
        </mxCell>
        <mxCell id="G8OpNZ5H0LpUO1ZOk_jS-36" value="&lt;font style=&quot;font-size: 10px;&quot;&gt;w&lt;/font&gt;" style="text;html=1;align=center;verticalAlign=middle;resizable=0;points=[];autosize=1;strokeColor=none;fillColor=none;fontStyle=0" vertex="1" parent="1">
          <mxGeometry x="778" y="369" width="30" height="30" as="geometry" />
        </mxCell>
        <mxCell id="G8OpNZ5H0LpUO1ZOk_jS-40" value="" style="endArrow=none;html=1;rounded=0;fillColor=#d5e8d4;strokeColor=#FF0000;fontColor=#009900;dashed=1;endFill=0;" edge="1" parent="1">
          <mxGeometry width="50" height="50" relative="1" as="geometry">
            <mxPoint x="629" y="316" as="sourcePoint" />
            <mxPoint x="690" y="323" as="targetPoint" />
          </mxGeometry>
        </mxCell>
        <mxCell id="G8OpNZ5H0LpUO1ZOk_jS-41" value="" style="endArrow=none;html=1;rounded=0;fillColor=#d5e8d4;strokeColor=#0000FF;fontColor=#009900;dashed=1;endFill=0;" edge="1" parent="1">
          <mxGeometry width="50" height="50" relative="1" as="geometry">
            <mxPoint x="690" y="368" as="sourcePoint" />
            <mxPoint x="690" y="323" as="targetPoint" />
          </mxGeometry>
        </mxCell>
        <mxCell id="G8OpNZ5H0LpUO1ZOk_jS-44" value="y" style="text;html=1;align=center;verticalAlign=middle;resizable=0;points=[];autosize=1;strokeColor=none;fillColor=none;" vertex="1" parent="1">
          <mxGeometry x="530" y="404" width="30" height="30" as="geometry" />
        </mxCell>
        <mxCell id="G8OpNZ5H0LpUO1ZOk_jS-45" value="z" style="text;html=1;align=center;verticalAlign=middle;resizable=0;points=[];autosize=1;strokeColor=none;fillColor=none;" vertex="1" parent="1">
          <mxGeometry x="503" y="426" width="30" height="30" as="geometry" />
        </mxCell>
        <mxCell id="G8OpNZ5H0LpUO1ZOk_jS-47" value="x" style="text;html=1;align=center;verticalAlign=middle;resizable=0;points=[];autosize=1;strokeColor=none;fillColor=none;" vertex="1" parent="1">
          <mxGeometry x="512" y="358" width="30" height="30" as="geometry" />
        </mxCell>
        <mxCell id="G8OpNZ5H0LpUO1ZOk_jS-48" value="w&#39;" style="text;html=1;align=center;verticalAlign=middle;resizable=0;points=[];autosize=1;strokeColor=none;fillColor=none;fontSize=9;" vertex="1" parent="1">
          <mxGeometry x="509" y="438" width="30" height="20" as="geometry" />
        </mxCell>
        <mxCell id="G8OpNZ5H0LpUO1ZOk_jS-49" value="w&#39;" style="text;html=1;align=center;verticalAlign=middle;resizable=0;points=[];autosize=1;strokeColor=none;fillColor=none;fontSize=9;" vertex="1" parent="1">
          <mxGeometry x="536" y="415" width="30" height="20" as="geometry" />
        </mxCell>
        <mxCell id="G8OpNZ5H0LpUO1ZOk_jS-50" value="w&#39;" style="text;html=1;align=center;verticalAlign=middle;resizable=0;points=[];autosize=1;strokeColor=none;fillColor=none;fontSize=9;" vertex="1" parent="1">
          <mxGeometry x="518" y="370" width="30" height="20" as="geometry" />
        </mxCell>
        <mxCell id="G8OpNZ5H0LpUO1ZOk_jS-51" value="" style="endArrow=classic;html=1;rounded=0;fillColor=#d5e8d4;strokeColor=#009900;fontColor=#009900;" edge="1" parent="1">
          <mxGeometry width="50" height="50" relative="1" as="geometry">
            <mxPoint x="511" y="410" as="sourcePoint" />
            <mxPoint x="664" y="374" as="targetPoint" />
          </mxGeometry>
        </mxCell>
        <mxCell id="G8OpNZ5H0LpUO1ZOk_jS-52" value="V" style="text;html=1;align=center;verticalAlign=middle;resizable=0;points=[];autosize=1;strokeColor=none;fillColor=none;fontStyle=1;fontColor=#009900;" vertex="1" parent="1">
          <mxGeometry x="588" y="385" width="30" height="30" as="geometry" />
        </mxCell>
        <mxCell id="G8OpNZ5H0LpUO1ZOk_jS-53" value="&amp;nbsp; &amp;nbsp;w&#39;" style="text;html=1;align=center;verticalAlign=middle;resizable=0;points=[];autosize=1;strokeColor=none;fillColor=none;fontStyle=1;fontColor=#009900;" vertex="1" parent="1">
          <mxGeometry x="582" y="390" width="50" height="30" as="geometry" />
        </mxCell>
        <mxCell id="G8OpNZ5H0LpUO1ZOk_jS-54" value="z" style="text;html=1;align=center;verticalAlign=middle;resizable=0;points=[];autosize=1;strokeColor=none;fillColor=none;fontColor=#0000FF;" vertex="1" parent="1">
          <mxGeometry x="657" y="319" width="30" height="30" as="geometry" />
        </mxCell>
        <mxCell id="G8OpNZ5H0LpUO1ZOk_jS-55" value="w" style="text;html=1;align=center;verticalAlign=middle;resizable=0;points=[];autosize=1;strokeColor=none;fillColor=none;fontColor=#0000FF;" vertex="1" parent="1">
          <mxGeometry x="665" y="323" width="30" height="30" as="geometry" />
        </mxCell>
        <mxCell id="G8OpNZ5H0LpUO1ZOk_jS-57" value="" style="endArrow=baseDash;html=1;rounded=0;endFill=0;startArrow=baseDash;startFill=0;fontColor=#FF8000;strokeColor=#FF8000;" edge="1" parent="1">
          <mxGeometry width="50" height="50" relative="1" as="geometry">
            <mxPoint x="490" y="411" as="sourcePoint" />
            <mxPoint x="491" y="510" as="targetPoint" />
          </mxGeometry>
        </mxCell>
        <mxCell id="G8OpNZ5H0LpUO1ZOk_jS-58" value="&lt;b&gt;t&lt;/b&gt;" style="text;html=1;align=center;verticalAlign=middle;resizable=0;points=[];autosize=1;strokeColor=none;fillColor=none;fontColor=#FF8000;" vertex="1" parent="1">
          <mxGeometry x="455" y="442" width="30" height="30" as="geometry" />
        </mxCell>
        <mxCell id="G8OpNZ5H0LpUO1ZOk_jS-59" value="c" style="text;html=1;align=center;verticalAlign=middle;resizable=0;points=[];autosize=1;strokeColor=none;fillColor=none;fontColor=#FF8000;" vertex="1" parent="1">
          <mxGeometry x="460" y="433" width="30" height="30" as="geometry" />
        </mxCell>
        <mxCell id="G8OpNZ5H0LpUO1ZOk_jS-60" value="w" style="text;html=1;align=center;verticalAlign=middle;resizable=0;points=[];autosize=1;strokeColor=none;fillColor=none;fontColor=#FF8000;" vertex="1" parent="1">
          <mxGeometry x="463" y="447" width="30" height="30" as="geometry" />
        </mxCell>
      </root>
    </mxGraphModel>
  </diagram>
</mxfile>
